<svg xmlns="http://www.w3.org/2000/svg" xmlns:xlink="http://www.w3.org/1999/xlink" viewBox="0,0,256,256" width="64px" height="64px"><g fill-opacity="0.8" fill="#ffffff" fill-rule="nonzero" stroke="none" stroke-width="1" stroke-linecap="butt" stroke-linejoin="miter" stroke-miterlimit="10" stroke-dasharray="" stroke-dashoffset="0" font-family="none" font-weight="none" font-size="none" text-anchor="none" style="mix-blend-mode: normal"><g transform="scale(3.55556,3.55556)"><path d="M45.049,14c12.011,0 12.951,0.94 12.951,12.951v18.098c0,12.011 -0.94,12.951 -12.951,12.951h-2.298v-16.018h5.647l0.888,-6.347h-6.535c0,0 -0.01,-3.716 0,-4.643c0.019,-1.814 1.533,-2.732 2.835,-2.718c1.302,0.013 3.998,0.004 3.998,0.004v-5.849c0,0 -2.335,-0.302 -4.784,-0.328c-2.058,-0.021 -4.331,0.535 -6.165,2.384c-1.865,1.88 -2.16,4.679 -2.195,8.1c-0.01,0.989 0,3.049 0,3.049h-5.526v6.347h5.526v16.019h-9.489c-12.011,0 -12.951,-0.94 -12.951,-12.951v-18.098c0,-12.011 0.94,-12.951 12.951,-12.951z"></path></g></g></svg>